<svg xmlns="http://www.w3.org/2000/svg" xmlns:xlink="http://www.w3.org/1999/xlink" width="1024" zoomAndPan="magnify" viewBox="0 0 768 576" height="768" preserveAspectRatio="xMidYMid meet" version="1.0"><defs><g/><clipPath id="c5e0ef7b28"><path d="M 187 87 L 560 87 L 560 460 L 187 460 Z M 187 87 " clip-rule="nonzero"/></clipPath><clipPath id="5d94486bf6"><path d="M 187.898438 88.703125 L 558.394531 87.160156 L 559.9375 457.660156 L 189.441406 459.199219 Z M 187.898438 88.703125 " clip-rule="nonzero"/></clipPath><clipPath id="1ece2fc68d"><path d="M 187.898438 88.703125 L 558.476562 87.160156 L 560.019531 457.738281 L 189.441406 459.28125 Z M 187.898438 88.703125 " clip-rule="nonzero"/></clipPath><clipPath id="2d07344479"><path d="M 187.898438 88.703125 L 558.476562 87.160156 L 560.019531 457.738281 L 189.441406 459.28125 Z M 187.898438 88.703125 " clip-rule="nonzero"/></clipPath></defs><g clip-path="url(#c5e0ef7b28)"><g clip-path="url(#5d94486bf6)"><g clip-path="url(#1ece2fc68d)"><g clip-path="url(#2d07344479)"><path stroke-linecap="butt" transform="matrix(0.749994, -0.00311983, 0.00311983, 0.749994, 187.899455, 88.702867)" fill="none" stroke-linejoin="miter" d="M -0.00135858 0.000338746 L 494.10709 -0.00157523 L 494.109004 494.106873 L 0.000555394 494.108787 Z M -0.00135858 0.000338746 " stroke="#232e35" stroke-width="16" stroke-opacity="1" stroke-miterlimit="4"/></g></g></g></g><g fill="#000000" fill-opacity="1"><g transform="translate(342.900937, 71.996376)"><g><path d="M 19.171875 -7.625 C 19.191406 -5.207031 18.332031 -3.289062 16.59375 -1.875 C 14.863281 -0.457031 12.441406 0.257812 9.328125 0.28125 C 6.460938 0.3125 3.925781 -0.203125 1.71875 -1.265625 L 1.671875 -6.5625 C 3.492188 -5.769531 5.03125 -5.210938 6.28125 -4.890625 C 7.539062 -4.566406 8.691406 -4.410156 9.734375 -4.421875 C 10.972656 -4.429688 11.925781 -4.675781 12.59375 -5.15625 C 13.269531 -5.644531 13.601562 -6.363281 13.59375 -7.3125 C 13.582031 -7.832031 13.425781 -8.296875 13.125 -8.703125 C 12.832031 -9.117188 12.398438 -9.515625 11.828125 -9.890625 C 11.253906 -10.265625 10.085938 -10.859375 8.328125 -11.671875 C 6.671875 -12.429688 5.429688 -13.160156 4.609375 -13.859375 C 3.785156 -14.554688 3.125 -15.375 2.625 -16.3125 C 2.132812 -17.25 1.878906 -18.351562 1.859375 -19.625 C 1.835938 -22 2.625 -23.875 4.21875 -25.25 C 5.820312 -26.625 8.046875 -27.328125 10.890625 -27.359375 C 12.285156 -27.367188 13.617188 -27.210938 14.890625 -26.890625 C 16.160156 -26.566406 17.488281 -26.113281 18.875 -25.53125 L 17.078125 -21.078125 C 15.640625 -21.660156 14.453125 -22.0625 13.515625 -22.28125 C 12.578125 -22.5 11.65625 -22.601562 10.75 -22.59375 C 9.664062 -22.59375 8.835938 -22.335938 8.265625 -21.828125 C 7.703125 -21.316406 7.421875 -20.65625 7.421875 -19.84375 C 7.429688 -19.34375 7.550781 -18.90625 7.78125 -18.53125 C 8.007812 -18.164062 8.378906 -17.8125 8.890625 -17.46875 C 9.410156 -17.125 10.625 -16.503906 12.53125 -15.609375 C 15.050781 -14.441406 16.78125 -13.257812 17.71875 -12.0625 C 18.664062 -10.863281 19.148438 -9.382812 19.171875 -7.625 Z M 19.171875 -7.625 "/></g></g><g transform="translate(363.622649, 71.805091)"><g><path d="M 2.46875 -25.875 C 2.445312 -27.707031 3.453125 -28.628906 5.484375 -28.640625 C 7.515625 -28.660156 8.539062 -27.753906 8.5625 -25.921875 C 8.570312 -25.054688 8.320312 -24.378906 7.8125 -23.890625 C 7.3125 -23.398438 6.550781 -23.148438 5.53125 -23.140625 C 3.5 -23.128906 2.476562 -24.039062 2.46875 -25.875 Z M 8.546875 -0.078125 L 2.9375 -0.03125 L 2.75 -20.578125 L 8.359375 -20.625 Z M 8.546875 -0.078125 "/></g></g><g transform="translate(375.104095, 71.699104)"><g><path d="M 17.203125 -6.25 C 17.222656 -4.144531 16.503906 -2.535156 15.046875 -1.421875 C 13.597656 -0.304688 11.414062 0.265625 8.5 0.296875 C 7.007812 0.304688 5.738281 0.210938 4.6875 0.015625 C 3.632812 -0.171875 2.648438 -0.457031 1.734375 -0.84375 L 1.6875 -5.46875 C 2.71875 -4.988281 3.890625 -4.585938 5.203125 -4.265625 C 6.515625 -3.953125 7.664062 -3.800781 8.65625 -3.8125 C 10.6875 -3.832031 11.695312 -4.429688 11.6875 -5.609375 C 11.675781 -6.046875 11.535156 -6.398438 11.265625 -6.671875 C 11.003906 -6.941406 10.539062 -7.25 9.875 -7.59375 C 9.207031 -7.9375 8.320312 -8.332031 7.21875 -8.78125 C 5.625 -9.4375 4.453125 -10.039062 3.703125 -10.59375 C 2.960938 -11.15625 2.421875 -11.796875 2.078125 -12.515625 C 1.734375 -13.242188 1.554688 -14.140625 1.546875 -15.203125 C 1.523438 -17.035156 2.21875 -18.457031 3.625 -19.46875 C 5.039062 -20.476562 7.046875 -20.992188 9.640625 -21.015625 C 12.117188 -21.035156 14.53125 -20.519531 16.875 -19.46875 L 15.21875 -15.40625 C 14.1875 -15.832031 13.222656 -16.179688 12.328125 -16.453125 C 11.429688 -16.734375 10.515625 -16.867188 9.578125 -16.859375 C 7.921875 -16.835938 7.097656 -16.382812 7.109375 -15.5 C 7.109375 -14.988281 7.378906 -14.550781 7.921875 -14.1875 C 8.460938 -13.832031 9.640625 -13.304688 11.453125 -12.609375 C 13.054688 -11.960938 14.234375 -11.363281 14.984375 -10.8125 C 15.734375 -10.257812 16.289062 -9.613281 16.65625 -8.875 C 17.019531 -8.144531 17.203125 -7.269531 17.203125 -6.25 Z M 17.203125 -6.25 "/></g></g><g transform="translate(393.805073, 71.526473)"><g><path d="M 2.46875 -25.875 C 2.445312 -27.707031 3.453125 -28.628906 5.484375 -28.640625 C 7.515625 -28.660156 8.539062 -27.753906 8.5625 -25.921875 C 8.570312 -25.054688 8.320312 -24.378906 7.8125 -23.890625 C 7.3125 -23.398438 6.550781 -23.148438 5.53125 -23.140625 C 3.5 -23.128906 2.476562 -24.039062 2.46875 -25.875 Z M 8.546875 -0.078125 L 2.9375 -0.03125 L 2.75 -20.578125 L 8.359375 -20.625 Z M 8.546875 -0.078125 "/></g></g></g><g fill="#000000" fill-opacity="1"><g transform="translate(583.775067, 225.357342)"><g><path d="M 7.328125 19.28125 C 4.910156 19.269531 3.003906 18.382812 1.609375 16.625 C 0.222656 14.875 -0.457031 12.441406 -0.4375 9.328125 C -0.414062 6.460938 0.140625 3.9375 1.234375 1.75 L 6.53125 1.78125 C 5.707031 3.582031 5.125 5.109375 4.78125 6.359375 C 4.4375 7.617188 4.265625 8.769531 4.265625 9.8125 C 4.253906 11.050781 4.484375 12.003906 4.953125 12.671875 C 5.429688 13.347656 6.144531 13.691406 7.09375 13.703125 C 7.613281 13.703125 8.078125 13.554688 8.484375 13.265625 C 8.898438 12.972656 9.300781 12.539062 9.6875 11.96875 C 10.070312 11.40625 10.6875 10.253906 11.53125 8.515625 C 12.3125 6.878906 13.054688 5.648438 13.765625 4.828125 C 14.484375 4.015625 15.316406 3.367188 16.265625 2.890625 C 17.210938 2.410156 18.320312 2.175781 19.59375 2.1875 C 21.96875 2.195312 23.828125 3.007812 25.171875 4.625 C 26.523438 6.25 27.191406 8.484375 27.171875 11.328125 C 27.160156 12.722656 26.984375 14.050781 26.640625 15.3125 C 26.304688 16.570312 25.835938 17.894531 25.234375 19.28125 L 20.8125 17.40625 C 21.40625 15.976562 21.820312 14.796875 22.0625 13.859375 C 22.300781 12.929688 22.421875 12.015625 22.421875 11.109375 C 22.429688 10.023438 22.1875 9.191406 21.6875 8.609375 C 21.195312 8.035156 20.546875 7.75 19.734375 7.75 C 19.234375 7.738281 18.789062 7.847656 18.40625 8.078125 C 18.03125 8.304688 17.664062 8.671875 17.3125 9.171875 C 16.96875 9.679688 16.335938 10.882812 15.421875 12.78125 C 14.203125 15.28125 12.988281 16.988281 11.78125 17.90625 C 10.570312 18.832031 9.085938 19.289062 7.328125 19.28125 Z M 7.328125 19.28125 "/></g></g><g transform="translate(583.634359, 246.079458)"><g><path d="M 25.828125 2.875 C 27.660156 2.882812 28.570312 3.90625 28.5625 5.9375 C 28.539062 7.96875 27.613281 8.976562 25.78125 8.96875 C 24.914062 8.96875 24.242188 8.710938 23.765625 8.203125 C 23.285156 7.691406 23.050781 6.925781 23.0625 5.90625 C 23.070312 3.875 23.992188 2.863281 25.828125 2.875 Z M -0.0625 8.546875 L -0.015625 2.9375 L 20.53125 3.078125 L 20.484375 8.6875 Z M -0.0625 8.546875 "/></g></g><g transform="translate(583.556395, 257.561127)"><g><path d="M 5.984375 17.3125 C 3.878906 17.289062 2.273438 16.546875 1.171875 15.078125 C 0.078125 13.609375 -0.457031 11.414062 -0.4375 8.5 C -0.425781 7.007812 -0.3125 5.738281 -0.09375 4.6875 C 0.113281 3.632812 0.414062 2.648438 0.8125 1.734375 L 5.4375 1.765625 C 4.945312 2.796875 4.53125 3.960938 4.1875 5.265625 C 3.851562 6.578125 3.679688 7.726562 3.671875 8.71875 C 3.660156 10.75 4.242188 11.765625 5.421875 11.765625 C 5.859375 11.773438 6.210938 11.644531 6.484375 11.375 C 6.765625 11.113281 7.082031 10.648438 7.4375 9.984375 C 7.789062 9.328125 8.203125 8.453125 8.671875 7.359375 C 9.347656 5.773438 9.96875 4.613281 10.53125 3.875 C 11.101562 3.144531 11.753906 2.613281 12.484375 2.28125 C 13.210938 1.945312 14.109375 1.785156 15.171875 1.796875 C 17.003906 1.804688 18.410156 2.519531 19.390625 3.9375 C 20.378906 5.363281 20.867188 7.375 20.859375 9.96875 C 20.835938 12.445312 20.285156 14.847656 19.203125 17.171875 L 15.15625 15.46875 C 15.601562 14.4375 15.96875 13.472656 16.25 12.578125 C 16.539062 11.691406 16.691406 10.78125 16.703125 9.84375 C 16.710938 8.1875 16.273438 7.359375 15.390625 7.359375 C 14.878906 7.347656 14.4375 7.609375 14.0625 8.140625 C 13.695312 8.679688 13.148438 9.847656 12.421875 11.640625 C 11.753906 13.242188 11.132812 14.414062 10.5625 15.15625 C 10 15.894531 9.347656 16.4375 8.609375 16.78125 C 7.878906 17.132812 7.003906 17.3125 5.984375 17.3125 Z M 5.984375 17.3125 "/></g></g><g transform="translate(583.429408, 276.262468)"><g><path d="M 25.828125 2.875 C 27.660156 2.882812 28.570312 3.90625 28.5625 5.9375 C 28.539062 7.96875 27.613281 8.976562 25.78125 8.96875 C 24.914062 8.96875 24.242188 8.710938 23.765625 8.203125 C 23.285156 7.691406 23.050781 6.925781 23.0625 5.90625 C 23.070312 3.875 23.992188 2.863281 25.828125 2.875 Z M -0.0625 8.546875 L -0.015625 2.9375 L 20.53125 3.078125 L 20.484375 8.6875 Z M -0.0625 8.546875 "/></g></g></g><g fill="#000000" fill-opacity="1"><g transform="translate(136.212514, 225.357342)"><g><path d="M 7.328125 19.28125 C 4.910156 19.269531 3.003906 18.382812 1.609375 16.625 C 0.222656 14.875 -0.457031 12.441406 -0.4375 9.328125 C -0.414062 6.460938 0.140625 3.9375 1.234375 1.75 L 6.53125 1.78125 C 5.707031 3.582031 5.125 5.109375 4.78125 6.359375 C 4.4375 7.617188 4.265625 8.769531 4.265625 9.8125 C 4.253906 11.050781 4.484375 12.003906 4.953125 12.671875 C 5.429688 13.347656 6.144531 13.691406 7.09375 13.703125 C 7.613281 13.703125 8.078125 13.554688 8.484375 13.265625 C 8.898438 12.972656 9.300781 12.539062 9.6875 11.96875 C 10.070312 11.40625 10.6875 10.253906 11.53125 8.515625 C 12.3125 6.878906 13.054688 5.648438 13.765625 4.828125 C 14.484375 4.015625 15.316406 3.367188 16.265625 2.890625 C 17.210938 2.410156 18.320312 2.175781 19.59375 2.1875 C 21.96875 2.195312 23.828125 3.007812 25.171875 4.625 C 26.523438 6.25 27.191406 8.484375 27.171875 11.328125 C 27.160156 12.722656 26.984375 14.050781 26.640625 15.3125 C 26.304688 16.570312 25.835938 17.894531 25.234375 19.28125 L 20.8125 17.40625 C 21.40625 15.976562 21.820312 14.796875 22.0625 13.859375 C 22.300781 12.929688 22.421875 12.015625 22.421875 11.109375 C 22.429688 10.023438 22.1875 9.191406 21.6875 8.609375 C 21.195312 8.035156 20.546875 7.75 19.734375 7.75 C 19.234375 7.738281 18.789062 7.847656 18.40625 8.078125 C 18.03125 8.304688 17.664062 8.671875 17.3125 9.171875 C 16.96875 9.679688 16.335938 10.882812 15.421875 12.78125 C 14.203125 15.28125 12.988281 16.988281 11.78125 17.90625 C 10.570312 18.832031 9.085938 19.289062 7.328125 19.28125 Z M 7.328125 19.28125 "/></g></g><g transform="translate(136.071805, 246.079458)"><g><path d="M 25.828125 2.875 C 27.660156 2.882812 28.570312 3.90625 28.5625 5.9375 C 28.539062 7.96875 27.613281 8.976562 25.78125 8.96875 C 24.914062 8.96875 24.242188 8.710938 23.765625 8.203125 C 23.285156 7.691406 23.050781 6.925781 23.0625 5.90625 C 23.070312 3.875 23.992188 2.863281 25.828125 2.875 Z M -0.0625 8.546875 L -0.015625 2.9375 L 20.53125 3.078125 L 20.484375 8.6875 Z M -0.0625 8.546875 "/></g></g><g transform="translate(135.993842, 257.561127)"><g><path d="M 5.984375 17.3125 C 3.878906 17.289062 2.273438 16.546875 1.171875 15.078125 C 0.078125 13.609375 -0.457031 11.414062 -0.4375 8.5 C -0.425781 7.007812 -0.3125 5.738281 -0.09375 4.6875 C 0.113281 3.632812 0.414062 2.648438 0.8125 1.734375 L 5.4375 1.765625 C 4.945312 2.796875 4.53125 3.960938 4.1875 5.265625 C 3.851562 6.578125 3.679688 7.726562 3.671875 8.71875 C 3.660156 10.75 4.242188 11.765625 5.421875 11.765625 C 5.859375 11.773438 6.210938 11.644531 6.484375 11.375 C 6.765625 11.113281 7.082031 10.648438 7.4375 9.984375 C 7.789062 9.328125 8.203125 8.453125 8.671875 7.359375 C 9.347656 5.773438 9.96875 4.613281 10.53125 3.875 C 11.101562 3.144531 11.753906 2.613281 12.484375 2.28125 C 13.210938 1.945312 14.109375 1.785156 15.171875 1.796875 C 17.003906 1.804688 18.410156 2.519531 19.390625 3.9375 C 20.378906 5.363281 20.867188 7.375 20.859375 9.96875 C 20.835938 12.445312 20.285156 14.847656 19.203125 17.171875 L 15.15625 15.46875 C 15.601562 14.4375 15.96875 13.472656 16.25 12.578125 C 16.539062 11.691406 16.691406 10.78125 16.703125 9.84375 C 16.710938 8.1875 16.273438 7.359375 15.390625 7.359375 C 14.878906 7.347656 14.4375 7.609375 14.0625 8.140625 C 13.695312 8.679688 13.148438 9.847656 12.421875 11.640625 C 11.753906 13.242188 11.132812 14.414062 10.5625 15.15625 C 10 15.894531 9.347656 16.4375 8.609375 16.78125 C 7.878906 17.132812 7.003906 17.3125 5.984375 17.3125 Z M 5.984375 17.3125 "/></g></g><g transform="translate(135.866854, 276.262468)"><g><path d="M 25.828125 2.875 C 27.660156 2.882812 28.570312 3.90625 28.5625 5.9375 C 28.539062 7.96875 27.613281 8.976562 25.78125 8.96875 C 24.914062 8.96875 24.242188 8.710938 23.765625 8.203125 C 23.285156 7.691406 23.050781 6.925781 23.0625 5.90625 C 23.070312 3.875 23.992188 2.863281 25.828125 2.875 Z M -0.0625 8.546875 L -0.015625 2.9375 L 20.53125 3.078125 L 20.484375 8.6875 Z M -0.0625 8.546875 "/></g></g></g><g fill="#000000" fill-opacity="1"><g transform="translate(342.900937, 509.934961)"><g><path d="M 19.171875 -7.625 C 19.191406 -5.207031 18.332031 -3.289062 16.59375 -1.875 C 14.863281 -0.457031 12.441406 0.257812 9.328125 0.28125 C 6.460938 0.3125 3.925781 -0.203125 1.71875 -1.265625 L 1.671875 -6.5625 C 3.492188 -5.769531 5.03125 -5.210938 6.28125 -4.890625 C 7.539062 -4.566406 8.691406 -4.410156 9.734375 -4.421875 C 10.972656 -4.429688 11.925781 -4.675781 12.59375 -5.15625 C 13.269531 -5.644531 13.601562 -6.363281 13.59375 -7.3125 C 13.582031 -7.832031 13.425781 -8.296875 13.125 -8.703125 C 12.832031 -9.117188 12.398438 -9.515625 11.828125 -9.890625 C 11.253906 -10.265625 10.085938 -10.859375 8.328125 -11.671875 C 6.671875 -12.429688 5.429688 -13.160156 4.609375 -13.859375 C 3.785156 -14.554688 3.125 -15.375 2.625 -16.3125 C 2.132812 -17.25 1.878906 -18.351562 1.859375 -19.625 C 1.835938 -22 2.625 -23.875 4.21875 -25.25 C 5.820312 -26.625 8.046875 -27.328125 10.890625 -27.359375 C 12.285156 -27.367188 13.617188 -27.210938 14.890625 -26.890625 C 16.160156 -26.566406 17.488281 -26.113281 18.875 -25.53125 L 17.078125 -21.078125 C 15.640625 -21.660156 14.453125 -22.0625 13.515625 -22.28125 C 12.578125 -22.5 11.65625 -22.601562 10.75 -22.59375 C 9.664062 -22.59375 8.835938 -22.335938 8.265625 -21.828125 C 7.703125 -21.316406 7.421875 -20.65625 7.421875 -19.84375 C 7.429688 -19.34375 7.550781 -18.90625 7.78125 -18.53125 C 8.007812 -18.164062 8.378906 -17.8125 8.890625 -17.46875 C 9.410156 -17.125 10.625 -16.503906 12.53125 -15.609375 C 15.050781 -14.441406 16.78125 -13.257812 17.71875 -12.0625 C 18.664062 -10.863281 19.148438 -9.382812 19.171875 -7.625 Z M 19.171875 -7.625 "/></g></g><g transform="translate(363.622649, 509.743676)"><g><path d="M 2.46875 -25.875 C 2.445312 -27.707031 3.453125 -28.628906 5.484375 -28.640625 C 7.515625 -28.660156 8.539062 -27.753906 8.5625 -25.921875 C 8.570312 -25.054688 8.320312 -24.378906 7.8125 -23.890625 C 7.3125 -23.398438 6.550781 -23.148438 5.53125 -23.140625 C 3.5 -23.128906 2.476562 -24.039062 2.46875 -25.875 Z M 8.546875 -0.078125 L 2.9375 -0.03125 L 2.75 -20.578125 L 8.359375 -20.625 Z M 8.546875 -0.078125 "/></g></g><g transform="translate(375.104095, 509.637689)"><g><path d="M 17.203125 -6.25 C 17.222656 -4.144531 16.503906 -2.535156 15.046875 -1.421875 C 13.597656 -0.304688 11.414062 0.265625 8.5 0.296875 C 7.007812 0.304688 5.738281 0.210938 4.6875 0.015625 C 3.632812 -0.171875 2.648438 -0.457031 1.734375 -0.84375 L 1.6875 -5.46875 C 2.71875 -4.988281 3.890625 -4.585938 5.203125 -4.265625 C 6.515625 -3.953125 7.664062 -3.800781 8.65625 -3.8125 C 10.6875 -3.832031 11.695312 -4.429688 11.6875 -5.609375 C 11.675781 -6.046875 11.535156 -6.398438 11.265625 -6.671875 C 11.003906 -6.941406 10.539062 -7.25 9.875 -7.59375 C 9.207031 -7.9375 8.320312 -8.332031 7.21875 -8.78125 C 5.625 -9.4375 4.453125 -10.039062 3.703125 -10.59375 C 2.960938 -11.15625 2.421875 -11.796875 2.078125 -12.515625 C 1.734375 -13.242188 1.554688 -14.140625 1.546875 -15.203125 C 1.523438 -17.035156 2.21875 -18.457031 3.625 -19.46875 C 5.039062 -20.476562 7.046875 -20.992188 9.640625 -21.015625 C 12.117188 -21.035156 14.53125 -20.519531 16.875 -19.46875 L 15.21875 -15.40625 C 14.1875 -15.832031 13.222656 -16.179688 12.328125 -16.453125 C 11.429688 -16.734375 10.515625 -16.867188 9.578125 -16.859375 C 7.921875 -16.835938 7.097656 -16.382812 7.109375 -15.5 C 7.109375 -14.988281 7.378906 -14.550781 7.921875 -14.1875 C 8.460938 -13.832031 9.640625 -13.304688 11.453125 -12.609375 C 13.054688 -11.960938 14.234375 -11.363281 14.984375 -10.8125 C 15.734375 -10.257812 16.289062 -9.613281 16.65625 -8.875 C 17.019531 -8.144531 17.203125 -7.269531 17.203125 -6.25 Z M 17.203125 -6.25 "/></g></g><g transform="translate(393.805073, 509.465058)"><g><path d="M 2.46875 -25.875 C 2.445312 -27.707031 3.453125 -28.628906 5.484375 -28.640625 C 7.515625 -28.660156 8.539062 -27.753906 8.5625 -25.921875 C 8.570312 -25.054688 8.320312 -24.378906 7.8125 -23.890625 C 7.3125 -23.398438 6.550781 -23.148438 5.53125 -23.140625 C 3.5 -23.128906 2.476562 -24.039062 2.46875 -25.875 Z M 8.546875 -0.078125 L 2.9375 -0.03125 L 2.75 -20.578125 L 8.359375 -20.625 Z M 8.546875 -0.078125 "/></g></g></g></svg>